<?xml version="1.0" standalone="no"?><!DOCTYPE svg PUBLIC "-//W3C//DTD SVG 1.1//EN" "http://www.w3.org/Graphics/SVG/1.1/DTD/svg11.dtd"><svg t="1509442475205" class="icon" style="" viewBox="0 0 2263 1024" version="1.1" xmlns="http://www.w3.org/2000/svg" p-id="1774" xmlns:xlink="http://www.w3.org/1999/xlink" width="141.4375" height="64"><defs><style type="text/css"></style></defs><path d="M1593.225012 251.58838l-1.512555-1.512555-1.00837-1.008371c-12.100443-11.092073-27.730182-17.64648-44.872477-17.646479-36.805515 0-67.056622 29.746923-67.056622 67.056622 0 36.805515 29.746923 67.056622 67.056622 67.056623 2.016741 0 4.033481 0 6.050222-0.504186v55.460365c32.772033 0 72.098474-42.351551 72.098473-94.28262 0-30.755293-13.612999-57.477105-30.755293-74.619399M505.193501 213.774495v140.163467h54.956179v129.071393h-54.956179c0 25.713442 4.033481 43.864106 12.100443 53.443624 8.066962 9.579517 23.192516 14.621369 44.872476 14.621369v128.063023c-6.050222 0-11.092073 0.504185-14.117183 0.504185-27.730182 0-53.443624-6.554407-78.148695-19.159035-24.705071-13.108813-43.864106-30.251108-58.989661-52.435254-18.150665-28.234367-27.730182-65.544067-27.730182-111.929099v-282.343673h122.012802zM728.547514 213.774495v151.255539c20.67159-15.125554 41.343181-22.688331 62.014771-22.68833 31.259478 0 55.964549 11.596258 74.619399 34.284588 18.150665 22.688331 27.730182 53.443624 27.730182 91.761694v206.211719h-122.012801V502.16839c0-14.117184-1.512555-23.192516-4.537667-28.234367-3.025111-5.041851-8.571147-7.058592-17.142294-7.058592-13.612999 0-20.67159 10.083703-20.67159 30.251108v176.96898h-122.012802V213.774495h122.012802zM1117.274249 552.082718v126.046282c-10.083703 1.512555-19.159035 2.520926-27.225997 2.520926-48.905958 0-89.744953-16.133924-122.516987-48.401772-32.772033-32.267848-48.905958-72.602659-48.905957-121.004432 0-46.889217 16.638109-87.224028 49.410143-119.996061 32.772033-32.772033 73.106844-49.410143 119.996061-49.410143 52.939439 0 94.282619 15.629739 124.533727 46.385032s45.376662 72.602659 45.376662 126.046283v159.322501h-122.012802v-150.751354c0-17.142294-4.033481-30.755293-12.604628-40.838995s-19.66322-15.125554-33.780404-15.125554c-12.604628 0-23.696701 4.537666-33.276219 14.117183-9.579517 9.579517-14.117184 20.67159-14.117183 33.276219 0 13.612999 4.033481 24.705071 12.604628 33.276219 8.571147 8.571147 19.159035 13.108813 32.267848 13.108813 11.596258 0 21.175775-2.520926 30.251108-8.571147M1404.659774 213.774495v140.163467h54.956179v129.071393h-54.956179c0 25.713442 4.033481 43.864106 12.100443 53.443624 8.066962 9.579517 23.192516 14.621369 44.872476 14.621369v128.063023c-6.554407 0-11.092073 0.504185-14.117183 0.504185-27.730182 0-53.443624-6.554407-78.148696-19.159035-24.705071-13.108813-43.864106-30.251108-58.98966-52.435254-18.65485-28.234367-28.234367-65.039882-28.234367-111.424913v-282.343674h122.516987zM1786.832102 353.433776v128.567209c-17.142294 0-29.242738 3.025111-35.292959 9.579517-6.554407 6.554407-10.587888 19.159035-12.100443 37.813885-5.546036 63.023141-29.746923 107.391433-73.106844 133.104874-22.688331 13.612999-54.956179 20.167405-97.30773 20.167406h-17.142294v-129.071394h5.546036c19.66322 0 33.276219-4.033481 41.847366-12.100443 8.066962-8.066962 13.108813-22.688331 14.621369-42.855736 1.512555-33.276219 5.041851-56.468735 9.075332-70.081733 4.537666-13.612999 13.612999-26.721812 27.225997-40.334811 23.696701-23.192516 56.97292-34.788774 99.324471-34.788774h37.309699z" fill="#EF462C" p-id="1775"></path><path d="M537.461349 739.135401h59.998031l23.192516 89.744954 23.192516-89.744954h59.99803v147.726244h-37.3097v-112.433285l-28.738552 112.433285h-33.780404l-28.738552-112.433285v112.433285h-37.3097v-147.726244zM833.922206 862.660758h-51.931069l-7.058591 24.200887h-46.385032l55.460364-147.726244h49.914328l55.460364 147.726244h-47.897587l-7.562777-24.200887z m-9.579518-32.267848l-16.133924-52.939439-16.133924 52.939439h32.267848zM914.591827 886.861645v-147.726244h76.131954c14.117184 0 24.705071 1.00837 32.267849 3.529296 7.562777 2.520926 13.612999 7.058592 18.150664 13.612999 4.537666 6.554407 7.058592 14.621369 7.058592 23.696701 0 8.066962-1.512555 15.125554-5.041851 21.175775-3.529296 6.050222-8.066962 10.587888-14.621369 14.621369-4.033481 2.520926-9.075332 4.537666-16.133924 6.050222 5.546036 2.016741 9.579517 3.529296 12.100443 5.546036 1.512555 1.00837 4.033481 4.033481 7.058592 7.562777 3.025111 4.033481 5.546036 7.058592 6.554407 9.075332l22.184145 42.855737H1008.370261l-24.200886-44.872477c-3.025111-6.050222-6.050222-9.579517-8.066962-11.596258-3.529296-2.520926-7.058592-3.529296-11.092073-3.529296h-4.033481v59.998031h-46.385032z m45.880847-87.728213h19.159035c2.016741 0 6.050222-0.504185 12.100443-2.016741 3.025111-0.504185 5.546036-2.016741 7.562777-4.537666 2.016741-2.520926 3.025111-5.546036 3.02511-8.571147 0-4.537666-1.512555-8.571147-4.537666-11.092073-3.025111-2.520926-8.571147-4.033481-17.142294-4.033481h-20.167405v30.251108zM1072.401773 739.135401h138.65091v36.30133H1164.667651v111.424914h-45.880846v-111.424914h-46.385032v-36.30133z" fill="" p-id="1776"></path><path d="M1622.46775 592.417528h-253.605121l-13.108813-37.309699c-2.520926-7.058592-6.554407-13.612999-11.596258-18.65485-8.571147-10.083703-21.679961-16.638109-34.788774-16.638109H1230.211718c-25.209257 0-45.376662 20.167405-45.376661 45.376661s20.167405 45.376662 45.376661 45.376662h32.772034l65.039882 182.010832c2.016741 5.546036 5.041851 10.587888 8.571147 15.125554-10.587888 11.596258-17.142294 26.721812-17.142295 43.864106 0 35.292959 28.738552 64.031512 64.031512 64.031512 35.292959 0 64.031512-28.738552 64.031512-64.031512 0-8.571147-1.512555-16.133924-4.537667-23.696701h48.905958c-3.025111 7.058592-4.537666 15.125554-4.537666 23.696701 0 35.292959 28.738552 64.031512 64.031511 64.031512 35.292959 0 64.031512-28.738552 64.031512-64.031512 0-14.117184-4.537666-27.225997-12.604628-37.813884 6.050222-5.546036 11.092073-12.604628 14.117183-21.175776l48.905958-138.146726c1.512555-4.033481 2.016741-7.562777 2.520926-12.100443 0-1.00837 0.504185-3.025111 0.504185-5.041851-1.00837-24.705071-21.679961-44.872477-46.385032-44.872477z" fill="#FFFFFF" p-id="1777"></path><path d="M1638.601674 637.79419c0-9.075332-7.562777-16.638109-16.638109-16.638109h-274.276711l-20.167405-56.468735c-1.512555-3.529296-3.529296-6.554407-6.050222-9.075332-3.025111-4.033481-7.562777-6.554407-13.108813-6.554407H1230.211718c-9.075332 0-16.638109 7.562777-16.638109 16.638109 0 9.075332 7.562777 16.638109 16.638109 16.63811h52.939439l72.098474 201.674052c4.033481 10.587888 14.621369 17.142294 25.713441 15.629739h178.985722c1.00837 0 1.512555 0 2.520925-0.504185 11.092073 1.512555 22.184146-4.537666 26.217627-15.629739l48.905958-138.146726c0.504185-2.016741 1.00837-4.033481 1.00837-5.546036v-2.016741z m-55.964549 16.638109l-12.604629 36.30133h-197.136386l-13.108813-36.30133h222.849828z m-39.326441 111.929099h-143.188577l-15.125554-42.855736h173.94387l-15.629739 42.855736zM1550.369276 816.779911c-19.159035 0-34.788774 15.629739-34.788774 34.788774 0 19.159035 15.629739 34.788774 34.788774 34.788774 19.159035 0 34.788774-15.629739 34.788774-34.788774 0-19.159035-15.629739-34.788774-34.788774-34.788774zM1382.979813 816.779911c-19.159035 0-34.788774 15.629739-34.788774 34.788774 0 19.159035 15.629739 34.788774 34.788774 34.788774 19.159035 0 34.788774-15.629739 34.788774-34.788774 0-19.159035-15.629739-34.788774-34.788774-34.788774z" fill="" p-id="1778"></path></svg>